<svg xmlns="http://www.w3.org/2000/svg" viewBox="0 0 92 92" fill="none">
    <path d="M69 11.5H23C16.6462 11.5 11.5 16.718 11.5 23.1603V58.1413C11.5 64.5836 16.6462 69.8016 23 69.8016H31.395L42.1763 79.0133C43.2688 80.0044 44.6487 80.5 46.0287 80.5C47.4087 80.5 48.7025 80.0336 49.7375 79.0716L60.8062 69.8016H69C75.3537 69.8016 80.5 64.5836 80.5 58.1413V23.1603C80.5 16.718 75.3537 11.5 69 11.5Z" fill="#F5F5F5"/>
    <path d="M32.487 36.9894C32.6525 36.4832 33.0803 36.1178 33.6047 36.0333L41.3189 34.8945L44.7551 27.7806C45.2244 26.8245 46.7699 26.8245 47.2391 27.7806L50.6892 34.8945L58.3896 36.0333C58.9141 36.1178 59.3418 36.4832 59.5074 36.9894C59.673 37.5095 59.5349 38.0579 59.1624 38.4375L53.5734 43.9769L54.8981 51.7938C54.9809 52.3281 54.774 52.8623 54.3461 53.1716C53.9183 53.4809 53.3663 53.523 52.8971 53.2841L45.9971 49.5865L39.1109 53.2841C38.904 53.3826 38.6831 53.4387 38.4624 53.4387C38.1726 53.4387 37.8965 53.3544 37.6481 53.1716C37.2342 52.8623 37.0133 52.3281 37.0961 51.7938L38.4209 43.9769L32.8457 38.4375C32.4594 38.0579 32.3352 37.5095 32.487 36.9894Z" fill="black"/>
</svg>