<svg xmlns="http://www.w3.org/2000/svg" style="display: none;">
  <symbol id="icon-fav" viewBox="0 0 24 24">
    <path d="M10.9632 4.25976C10.5685 3.92851 10.1328 3.64707 9.65625 3.41544C7.96168 2.76125 6.32105 2.87967 4.73438 3.77069C3.1401 4.86701 2.22864 6.38666 2 8.32964V9.79009C2.19221 11.1288 2.69352 12.3392 3.50391 13.4215C4.30644 14.4425 5.18534 15.3964 6.14062 16.2831C7.78699 17.7398 9.44063 19.1871 11.1016 20.625C11.7005 21.125 12.2995 21.125 12.8984 20.625C14.5594 19.1871 16.213 17.7398 17.8594 16.2831C18.8146 15.3964 19.6936 14.4425 20.4961 13.4215C21.3065 12.3392 21.8078 11.1288 22 9.79009V8.32964C21.9194 7.79851 21.7957 7.2722 21.6289 6.75078C21.0318 5.13434 19.9446 3.99625 18.3672 3.3365C16.2848 2.68344 14.5078 2.98946 13.036 4.25456C12.672 4.56746 12.3267 4.93903 12 5.36928C11.6932 4.9522 11.3476 4.58236 10.9632 4.25976ZM17.8513 4.7471C16.8121 4.4324 15.9757 4.44172 15.2836 4.6627C14.5765 4.88845 13.874 5.38168 13.1947 6.27635L11.981 7.87487L10.7917 6.25809C10.326 5.62501 9.75252 5.14091 9.05687 4.79233C7.82434 4.33261 6.6866 4.41359 5.52815 5.04574C4.35211 5.87401 3.69054 6.96756 3.5 8.42225V9.67768C3.66559 10.7214 4.06109 11.6587 4.69443 12.5088C5.44178 13.4581 6.25951 14.3456 7.14819 15.1718C8.75849 16.5964 10.3758 18.0121 12 19.4188C13.6243 18.0121 15.2415 16.5964 16.8518 15.1718C17.7405 14.3456 18.5582 13.4581 19.3056 12.5087C19.9389 11.6587 20.3344 10.7214 20.5 9.67768V8.44742C20.4334 8.04336 20.3371 7.64104 20.2105 7.24007C19.7627 6.04913 18.9965 5.2431 17.8513 4.7471Z" fill="currentColor"/>
  </symbol>
  <symbol id="icon-sun" viewBox="0 0 24 24">
    <path d="M18 12C18 15.3137 15.3137 18 12 18C8.68629 18 6 15.3137 6 12C6 8.68629 8.68629 6 12 6C15.3137 6 18 8.68629 18 12Z" fill="currentColor"/>
    <path fill-rule="evenodd" clip-rule="evenodd" d="M12 1.25C12.4142 1.25 12.75 1.58579 12.75 2V3C12.75 3.41421 12.4142 3.75 12 3.75C11.5858 3.75 11.25 3.41421 11.25 3V2C11.25 1.58579 11.5858 1.25 12 1.25ZM4.39861 4.39861C4.6915 4.10572 5.16638 4.10572 5.45927 4.39861L5.85211 4.79145C6.145 5.08434 6.145 5.55921 5.85211 5.85211C5.55921 6.145 5.08434 6.145 4.79145 5.85211L4.39861 5.45927C4.10572 5.16638 4.10572 4.6915 4.39861 4.39861ZM19.6011 4.39887C19.894 4.69176 19.894 5.16664 19.6011 5.45953L19.2083 5.85237C18.9154 6.14526 18.4405 6.14526 18.1476 5.85237C17.8547 5.55947 17.8547 5.0846 18.1476 4.79171L18.5405 4.39887C18.8334 4.10598 19.3082 4.10598 19.6011 4.39887ZM1.25 12C1.25 11.5858 1.58579 11.25 2 11.25H3C3.41421 11.25 3.75 11.5858 3.75 12C3.75 12.4142 3.41421 12.75 3 12.75H2C1.58579 12.75 1.25 12.4142 1.25 12ZM20.25 12C20.25 11.5858 20.5858 11.25 21 11.25H22C22.4142 11.25 22.75 11.5858 22.75 12C22.75 12.4142 22.4142 12.75 22 12.75H21C20.5858 12.75 20.25 12.4142 20.25 12ZM18.1476 18.1476C18.4405 17.8547 18.9154 17.8547 19.2083 18.1476L19.6011 18.5405C19.894 18.8334 19.894 19.3082 19.6011 19.6011C19.3082 19.894 18.8334 19.894 18.5405 19.6011L18.1476 19.2083C17.8547 18.9154 17.8547 18.4405 18.1476 18.1476ZM5.85211 18.1479C6.145 18.4408 6.145 18.9157 5.85211 19.2086L5.45927 19.6014C5.16638 19.8943 4.6915 19.8943 4.39861 19.6014C4.10572 19.3085 4.10572 18.8336 4.39861 18.5407L4.79145 18.1479C5.08434 17.855 5.55921 17.855 5.85211 18.1479ZM12 20.25C12.4142 20.25 12.75 20.5858 12.75 21V22C12.75 22.4142 12.4142 22.75 12 22.75C11.5858 22.75 11.25 22.4142 11.25 22V21C11.25 20.5858 11.5858 20.25 12 20.25Z" fill="currentColor"/>
  </symbol>
  <symbol id="icon-moon" viewBox="0 0 32 32">
    <path d="M10.895 7.574c0 7.55 5.179 13.67 11.567 13.67 1.588 0 3.101-0.38 4.479-1.063-1.695 4.46-5.996 7.636-11.051 7.636-6.533 0-11.83-5.297-11.83-11.83 0-4.82 2.888-8.959 7.023-10.803-0.116 0.778-0.188 1.573-0.188 2.39z" fill="currentColor"/>
  </symbol>
</svg>
