<svg xmlns="http://www.w3.org/2000/svg" style="display: none;">
  <symbol id="icon-fav" viewBox="0 0 24 24">
    <path d="M10.9632 4.25976C10.5685 3.92851 10.1328 3.64707 9.65625 3.41544C7.96168 2.76125 6.32105 2.87967 4.73438 3.77069C3.1401 4.86701 2.22864 6.38666 2 8.32964V9.79009C2.19221 11.1288 2.69352 12.3392 3.50391 13.4215C4.30644 14.4425 5.18534 15.3964 6.14062 16.2831C7.78699 17.7398 9.44063 19.1871 11.1016 20.625C11.7005 21.125 12.2995 21.125 12.8984 20.625C14.5594 19.1871 16.213 17.7398 17.8594 16.2831C18.8146 15.3964 19.6936 14.4425 20.4961 13.4215C21.3065 12.3392 21.8078 11.1288 22 9.79009V8.32964C21.9194 7.79851 21.7957 7.2722 21.6289 6.75078C21.0318 5.13434 19.9446 3.99625 18.3672 3.3365C16.2848 2.68344 14.5078 2.98946 13.036 4.25456C12.672 4.56746 12.3267 4.93903 12 5.36928C11.6932 4.9522 11.3476 4.58236 10.9632 4.25976ZM17.8513 4.7471C16.8121 4.4324 15.9757 4.44172 15.2836 4.6627C14.5765 4.88845 13.874 5.38168 13.1947 6.27635L11.981 7.87487L10.7917 6.25809C10.326 5.62501 9.75252 5.14091 9.05687 4.79233C7.82434 4.33261 6.6866 4.41359 5.52815 5.04574C4.35211 5.87401 3.69054 6.96756 3.5 8.42225V9.67768C3.66559 10.7214 4.06109 11.6587 4.69443 12.5088C5.44178 13.4581 6.25951 14.3456 7.14819 15.1718C8.75849 16.5964 10.3758 18.0121 12 19.4188C13.6243 18.0121 15.2415 16.5964 16.8518 15.1718C17.7405 14.3456 18.5582 13.4581 19.3056 12.5087C19.9389 11.6587 20.3344 10.7214 20.5 9.67768V8.44742C20.4334 8.04336 20.3371 7.64104 20.2105 7.24007C19.7627 6.04913 18.9965 5.2431 17.8513 4.7471Z" fill="currentColor"/>
  </symbol>
</svg>
